<?xml version="1.0" encoding="UTF-8"?>
<!DOCTYPE svg PUBLIC "-//W3C//DTD SVG 1.1//EN" "http://www.w3.org/Graphics/SVG/1.1/DTD/svg11.dtd">
<!-- Creator: CorelDRAW 2020 (64-Bit) -->
<svg xmlns="http://www.w3.org/2000/svg" xml:space="preserve" width="1411.11mm" height="1411.11mm" version="1.1" style="shape-rendering:geometricPrecision; text-rendering:geometricPrecision; image-rendering:optimizeQuality; fill-rule:evenodd; clip-rule:evenodd"
viewBox="0 0 141111.1 141111.1"
 xmlns:xlink="http://www.w3.org/1999/xlink"
 xmlns:xodm="http://www.corel.com/coreldraw/odm/2003">
 <defs>
  <style type="text/css">
   <![CDATA[
    .fil4 {fill:#000072;fill-rule:nonzero}
    .fil18 {fill:#15056B;fill-rule:nonzero}
    .fil11 {fill:#9999C7;fill-rule:nonzero}
    .fil16 {fill:#B4B4D4;fill-rule:nonzero}
    .fil15 {fill:#D3D3E5;fill-rule:nonzero}
    .fil3 {fill:#D6214C;fill-rule:nonzero}
    .fil2 {fill:#D9D9EA;fill-rule:nonzero}
    .fil17 {fill:#E1D1DC;fill-rule:nonzero}
    .fil14 {fill:#E5CFDE;fill-rule:nonzero}
    .fil13 {fill:#EFA6B7;fill-rule:nonzero}
    .fil6 {fill:#F4B22F;fill-rule:nonzero}
    .fil8 {fill:#F5E6FF;fill-rule:nonzero}
    .fil9 {fill:#FBE0AC;fill-rule:nonzero}
    .fil19 {fill:#FF0068;fill-rule:nonzero}
    .fil1 {fill:#FF365D;fill-rule:nonzero}
    .fil12 {fill:#FFAFBE;fill-rule:nonzero}
    .fil5 {fill:#FFDB43;fill-rule:nonzero}
    .fil10 {fill:#FFF1B4;fill-rule:nonzero}
    .fil7 {fill:#FFF8D9;fill-rule:nonzero}
    .fil0 {fill:white;fill-rule:nonzero}
   ]]>
  </style>
 </defs>
 <g id="Layer_x0020_1">
  <metadata id="CorelCorpID_0Corel-Layer"/>
  <g id="_2893228635584">
   <path class="fil0" d="M105722.71 55650.68c-354.94,931.7 -756.05,1866.95 -1193.72,2793.26 -3143.49,6646.36 -12421.51,14464.98 -18265.64,16584.05 -5844.13,2119.17 -9833.33,-11343.51 -9833.33,-11343.51 0,0 1883.5,-161.5 4604.43,-1333.77 3525.37,-1516.63 8454.35,-4727.27 12512.71,-11474.53 963.44,-1597.71 1875.03,-3395.51 2709.29,-5416.85 484.41,-1169.09 1272.79,-2198.14 2322.22,-2903.02 1287.02,-859.36 3173.31,-1427.65 5583.84,-258.94 1541.93,748.65 2456.69,1989.69 2883.78,3550.38l0 3.17c723.35,2636.96 55.79,6183.78 -1323.58,9799.76z"/>
   <path class="fil1" d="M105722.71 55650.68c-328.97,142.94 -681.99,279.05 -1055.2,400.44 -1733.35,558.09 -3907.25,778.56 -6205.23,-165.16 -3248.63,-1335.22 -4462.84,-3514.69 -4915.12,-5009.78 963.44,-1597.71 1875.03,-3395.51 2709.29,-5416.85 484.41,-1169.09 1272.79,-2198.14 2322.22,-2903.02 1287.02,-859.36 3173.31,-1427.65 5583.84,-258.94 1543.85,748.65 2458.62,1991.42 2883.78,3553.55 52.9,183.44 96.19,371.78 131.78,565.12 38.48,191.9 68.29,388.41 92.34,588.78 1.93,8.18 1.93,16.54 2.89,25.01 10.58,92.44 20.2,185.26 28.85,279.14 18.28,202.1 30.79,408.81 35.59,619.08 65.41,2292.31 -572.33,4987.94 -1615.03,7722.63z"/>
   <path class="fil1" d="M86682.74 58911.81c0,0 1635.52,1126.68 4628.86,1619.56l-2993.34 -2797.5 -1635.52 1177.94z"/>
   <path class="fil0" d="M103053.44 51762.77c-433.82,1514.03 -1874.75,2429.18 -3216.6,2044.33 -1342.82,-384.96 -2079.63,-1924.38 -1645.72,-3438.22 434.68,-1514.04 1874.65,-2429.57 3216.5,-2044.33 1342.82,384.95 2079.63,1924.09 1645.82,3438.22z"/>
   <path class="fil0" d="M100416.86 47224.23c-219.31,763.08 -944.58,1224.21 -1621.76,1030.1 -676.32,-194.02 -1047.8,-969.79 -829.07,-1732.77 218.74,-763.08 944.5,-1224.21 1621.67,-1030.1 676.22,194.01 1047.52,969.79 829.16,1732.77z"/>
   <path class="fil0" d="M103544.97 46591.78c-219.32,762.98 -944.59,1224.4 -1621.77,1030.39 -676.22,-194.02 -1047.51,-969.79 -829.16,-1732.87 218.35,-762.98 944.59,-1224.4 1621.77,-1030.39 676.21,194.02 1047.51,969.79 829.16,1732.87z"/>
   <path class="fil0" d="M105674.62 49087.62c-218.35,763.08 -944.59,1224.5 -1621.77,1030.49 -676.22,-194.02 -1047.51,-969.79 -829.16,-1732.87 219.32,-763.07 944.59,-1224.5 1621.77,-1030.48 676.21,194.01 1047.51,969.79 829.16,1732.86z"/>
   <path class="fil1" d="M83012.12 60531.37c0,0 2403.89,4143.39 4762.18,3553.84 2357.91,-589.46 1694.01,-2992.96 1694.01,-2992.96 0,0 1208.24,4026.62 -1285.87,4985.83 -3185.53,1224.5 -8216.85,-3760.94 -8216.85,-3760.94l3046.53 -1785.77z"/>
   <path class="fil2" d="M89036.51 73209.13c-1096.38,-939.78 -2277.88,-1783.94 -3530.18,-2518.45 409.87,156.6 883.6,381.01 1330.6,696.71 79.45,56.08 172.85,84.64 266.74,84.64 68.39,0 136.87,-15.1 200.36,-45.49 151.31,-72.34 251.15,-221.14 261.73,-388.71 5.29,-87.53 58.97,-1268.26 -776.44,-2689.57 937.66,352.73 2008.73,568.29 3226.12,568.29 588.78,0 1211.13,-50.11 1870.13,-159.77 5149.54,-856.29 10004.93,-6606.15 12781.94,-12705.66 159.67,-51.85 315.5,-106.58 467.48,-163.33 -303.96,768.36 -645.44,1555.39 -1025.39,2358 -2606.75,5516.7 -9579.29,11867.75 -15073.09,14963.34z"/>
   <path class="fil3" d="M105722.71 55650.68c-328.97,142.94 -681.99,279.05 -1055.2,400.44 1632.34,-3587.41 2547.11,-7295.83 2378.78,-10200.2 50.98,183.44 94.27,371.78 131.78,565.12 36.55,191.9 67.33,388.41 92.34,588.78 1.93,8.18 1.93,16.54 2.89,25.01 10.58,92.44 20.2,185.26 28.85,279.14 18.28,202.1 30.79,408.81 35.59,619.08 65.41,2292.31 -572.33,4987.94 -1615.03,7722.63z"/>
   <path class="fil4" d="M77037.85 64066.55c634.27,1917.74 3060.38,8625.75 6452.34,10337.46 882.25,445.55 1737.77,506.92 2615.79,188.72 5618.37,-2036.92 14902.45,-9782.54 18003.62,-16346.94 1698.72,-3594.14 2652.93,-6882.79 2759.7,-9510.61 122.16,-3000.36 -856.09,-5026.32 -2907.83,-6021.21 -1842.04,-892.84 -3565.77,-815.98 -5124.05,227.97 -940.55,630.04 -1684.87,1562.03 -2152.35,2694.86 -3701.3,8966.85 -8980.31,13517.99 -12757.12,15757.49 -3156.29,1871.09 -5778.15,2483.53 -6890.1,2672.26zm7977.05 11650.07c-650.25,0 -1299.63,-162.18 -1942.47,-486.82 -4305.57,-2173.42 -6974.36,-11038.01 -7085.85,-11414.12 -39.53,-133.32 -16.92,-277.22 61.37,-392.26 78.3,-114.66 203.93,-187.96 342.25,-199.98 31.36,-2.89 3169.66,-303 7112.59,-2653.31 3640.41,-2169.57 8733.77,-6582.77 12326.77,-15286.54 537.7,-1302.41 1399.85,-2378.01 2493.24,-3110.4 1272.6,-852.63 3354.15,-1595.6 6041.71,-291.75 2380.7,1153.9 3566.73,3536.91 3429.18,6891.45 -141.4,3474.87 -1626.58,7284.58 -2847.23,9868.24 -3245.46,6867.98 -12623.13,14681.99 -18525.07,16821.55 -467.39,169.29 -937.37,253.94 -1406.49,253.94z"/>
   <path class="fil0" d="M60803.07 64470.83c0,0 -3616.37,1095.71 -5589.04,5186.87 0,0 1631.2,-803.58 3336.17,-876.58 0,0 -2466.99,1278.46 -2718.92,4639.34l1684.2 -1412.55c0,0 -1335.6,4501.12 3514.79,8691.74l571.08 -1799.91c0,0 8560.92,5260.35 15917.35,6429.06 0,0 7675.69,-2095.88 6943.39,-15415.33 0,0 1399.76,219.41 2641.86,1096.08 0,0 219.13,-3569.04 -4822.01,-5729.76 0,0 670.54,-954.97 2180.15,-808.96 0,0 -1786.83,-2136.09 -6943.39,-1899.65 -5156.18,236.33 -16715.63,1899.65 -16715.63,1899.65z"/>
   <path class="fil4" d="M70588.39 65966.98c1444.3,488.64 2819.72,1171.88 4009.31,2141 396.2,338.3 768.36,717.19 1095.02,1151.78 151.31,189.11 120.24,464.98 -69.16,616 -85.03,68.78 -184.49,95.23 -286.84,97.73l-2654.94 182.37 312.52 -770.48c928.91,1348.68 1403.03,2942.17 1617.15,4546.24 7.79,50.5 -71.95,70.89 -85.71,18.37 -346.86,-1104.94 -842.81,-2169.57 -1516.91,-3108.67 -205.37,-286.17 -459.02,-605.04 -703.15,-837.82 -301.94,-269.53 -85.04,-784.24 312.52,-770.87l2655.04 -182.37 -356.58 712.96c-990.66,-1641.1 -2712.56,-2749.6 -4410.8,-3574.04 -135.53,-55.03 -60.31,-270.2 82.53,-222.2z"/>
   <path class="fil4" d="M61601.35 78436.97c84.64,0 168.62,23.28 242.4,68.39 84.36,51.85 8483.97,5174.17 15639.65,6348.94 382.45,-132.26 1968.82,-764.81 3469.19,-2586.17 1593.2,-1933.62 3415.24,-5642.32 3047.31,-12329.27 -7.41,-139.28 48,-274.82 151.69,-368.22 103.79,-93.88 243.75,-135.91 382.07,-113.98 48.67,7.41 969.4,156.6 2002.39,676.6 -269.53,-1102.44 -1207.96,-3044.42 -4436.2,-4428.02 -128.03,-55.11 -224.7,-164.77 -262.79,-298.86 -38.09,-133.99 -13.75,-277.99 66.28,-392.26 24.33,-34.54 449.49,-624.37 1337.71,-891.88 -949.3,-547.42 -2743.15,-1223.73 -5700.8,-1088.97 -4924.84,225.76 -15882.05,1782.6 -16631.76,1889.85 -303.77,103.02 -2861.37,1041.07 -4660.89,3834.33 633.22,-203.92 1445.35,-402.55 2282.49,-438.53 220.08,-8.75 411.02,133.32 467.1,342.92 55.7,209.89 -41.26,430.35 -234.32,530.2 -76.85,40.59 -1666.49,904.86 -2264.8,3065.29l720.08 -603.59c156.22,-131.21 380.24,-144.29 550.98,-32.42 170.74,111.77 247.69,322.82 189.78,518.56 -47.61,164.39 -1084.44,3954.28 2848.68,7731.86l352.82 -1112.05c43.38,-135.73 146.4,-243.75 279.72,-293.48 52.23,-19.43 106.97,-29.24 161.22,-29.24zm15917.74 7354.7c-24.34,0 -48.77,-2.12 -72.72,-6.06 -6425.51,-1020.96 -13617.93,-5038.34 -15580.79,-6189.07l-394.38 1243.17c-46.94,148.51 -165.45,262.79 -315.41,305.5 -149.19,42.32 -310.4,6.34 -428.23,-95.23 -3502.77,-3026.53 -3925.04,-6202.15 -3841.07,-7910.68l-757.79 635.62c-142.84,119.66 -342.91,141.5 -508.65,57.24 -165.45,-85.04 -263.85,-260.78 -250.09,-446.23 136.88,-1822.51 875.52,-3074.81 1582.13,-3872.81 -880.52,241.25 -1523.65,554.92 -1533.46,559.83 -177.86,87.53 -390.15,52.52 -530.3,-86.48 -140.34,-138.99 -176.7,-351.67 -91.38,-529.43 2037.69,-4225.63 5716.49,-5382.03 5872.03,-5428.97 22.22,-7.02 44.82,-11.93 68.1,-15.1 115.72,-16.93 11640.93,-1669.38 16760.75,-1903.99 5323.83,-245.19 7240.13,1970.65 7319.11,2064.82 120.33,144.28 141.78,346.76 54.34,512.89 -87.82,165.83 -267.02,262.5 -454.01,244.51 -574.35,-55.69 -996.63,76.18 -1283.08,232.49 4595.67,2280 4440.81,5722.07 4431.57,5874.14 -10.58,167.57 -110.42,316.37 -261.73,388.71 -150.92,72.33 -329.84,57.9 -467.1,-39.15 -669.58,-472.68 -1398.03,-741.15 -1884.85,-881.97 242.02,6645.01 -1662.26,10407.29 -3331.64,12407.18 -1898.7,2274.03 -3895.41,2839.54 -3979.67,2862.43 -39.92,10.97 -80.8,16.64 -121.68,16.64z"/>
   <path class="fil5" d="M97075.22 91581.74c0,13126.2 -10642.19,23768.39 -23768.4,23768.39 -13127.84,0 -23770.12,-10642.19 -23770.12,-23768.39 0,-726.62 32.12,-1446.41 97.73,-2157.93 496.05,-5526.22 2883.97,-10507.43 6513.32,-14289.91 4325.48,-4512.09 10413.64,-7322.29 17159.07,-7322.29 13126.21,0 23768.4,10642.29 23768.4,23770.13z"/>
   <path class="fil6" d="M95487.79 94274.2c-1328.58,11069.47 -10753.38,19649.72 -22180.97,19649.72 -12340.81,0 -22343.82,-10003 -22343.82,-22342.18 0,-137.84 1.45,-277.6 4.91,-415.54 -474.12,-491.05 -923.14,-1064.63 -1332.04,-1735.66l-1.44 -6.73c496.05,-5526.22 2883.97,-10507.43 6513.32,-14289.91 111.2,745.09 590.22,2648.98 2687.46,5148.09 561.65,665.64 1153.61,1397.36 1708.91,2166.01 566.56,780.4 1094.65,1599.17 1511.63,2426.79 1163.8,2305.77 1473.15,4683.78 -628.99,6527.07 -1642.93,1442.86 -3842.79,2246.81 -6024,2011.15 -390.25,-41.94 -640.72,395.15 -401.88,704.88 295.97,384.86 603.59,761.63 921.5,1128.21 -551.37,977.2 -1116.58,2798.56 -536.65,5822.59 972.29,5072.2 5087.5,7559.29 8851.23,8077.56 3449.47,472.3 6338.74,-1315.2 6844.98,-5385.2 1374.08,228.64 2785.19,348.21 4224.48,348.21 3802.59,0 7411.46,-829.35 10655.66,-2315.97 97.73,218.73 232.11,405.34 417.37,523.18 748.17,475.85 4387.42,67.33 5272.18,-1836.56 603.6,-1300.01 692.86,-2329.44 687.95,-2853.97 1145.15,-1019.23 2199.58,-2142.44 3148.21,-3351.74z"/>
   <path class="fil6" d="M75103.94 76920.73c0,0 1123.22,-4331.06 7081.62,-1951.22 5958.11,2379.84 5962.63,7981.95 3598.67,8707.61 0,0 3745.83,-63.48 3366.55,-4113.38 -378.79,-4049.89 -6539.1,-7115.57 -9185.19,-7130 -2645.91,-14.14 -5106.16,588.01 -4861.65,4486.99z"/>
   <path class="fil6" d="M84304.72 94117.22c0,0 -2103.29,5239.76 1598.78,6951.08 3989.97,1844.35 5988.8,-1711.32 6412.81,-3207.84 0,0 49.73,4805.56 -4678.21,5310.75 -4727.94,505.58 -6068.83,-5120.2 -5178.78,-6708.11 890.04,-1588.1 1845.4,-2345.88 1845.4,-2345.88z"/>
   <path class="fil6" d="M64748.11 77292.21c0,0 -3222.95,-1435.44 -5898.76,1958.24 -2675.82,3394.07 -1950.16,5699.85 -408.14,6088.93 0,0 -2506.52,804.35 -2678.32,-2699.48 -171.79,-3503.72 3762.77,-6207.05 5166.09,-6543.62 1403.32,-336.57 3277.97,60.98 3819.13,1195.93z"/>
   <path class="fil6" d="M58303.56 95091.24c0,0 -1458.72,5501.88 3076.26,9039.18 5050.75,3939.47 8422.99,-583.88 8422.99,-583.88 0,0 -260.39,4446.39 -5294.21,4261.23 -5033.44,-185.55 -7870.09,-5449.75 -8107.2,-7579.4 -237.01,-2129.75 512.22,-4526.52 1902.16,-5137.13z"/>
   <path class="fil6" d="M70051.84 91772.29c0,0 1172.95,-2480.07 3671.68,-1972.76 2498.73,506.92 2334.34,3329.53 1764.22,4317.69 0,0 1801.64,-1977.29 734.51,-3810.77 -1067.23,-1833.67 -5525.55,-3160.13 -6170.41,1465.84z"/>
   <path class="fil7" d="M95884.29 89342.72c-1881.39,-10978.08 -11443.75,-19333.26 -22957.32,-19333.26 -5774.68,0 -11057.83,2101.47 -15127.44,5580.57 -49.73,-155.25 -93.5,-303.77 -131.98,-444.88 4069.33,-3873.86 9576.12,-6252.55 15639.27,-6252.55 11774.06,0 21453.2,8970.4 22577.47,20450.12z"/>
   <path class="fil4" d="M84807.41 85150.66c-3700.24,353.5 -7411.83,-1614.26 -9659.41,-4505.36 -1236.14,-1637.92 -2065.11,-3825.09 -1454.49,-5867.4 239.61,-786.65 695.36,-1510.57 1318.28,-2039.43 -758.74,933.14 -1125.32,2093.78 -1054.43,3271.05 410.34,4918.78 6300.64,8601.03 10850.05,9141.14z"/>
   <path class="fil4" d="M75877.22 78717.46c-1285.2,-1679.96 -1726.81,-4208.32 134.76,-5673.39 1736.04,-1318.38 4108.76,-1167.36 6091.05,-589.55 3190.53,991.72 6476.29,3440.34 7314.87,6823.06 345.71,1414.67 -122.45,3080.78 -1405.14,3885.5 -1787.89,1163.13 -4083.37,863.31 -5976.78,171.51 -76.18,-31.07 -38.38,-141.88 38.86,-123.22 1282.03,317.23 2621.76,447 3879.16,191.23 3043.36,-628.99 3495.94,-3245.56 1947.95,-5648.96 -1030.78,-1613.3 -2582.32,-2867.43 -4283.06,-3729.3 -2346.95,-1267.11 -7107.01,-2222.08 -8294.09,955.36 -403.23,1226.62 -0.68,2588.39 587.33,3715.83 14.14,21.55 -22.22,42.71 -34.91,21.93z"/>
   <path class="fil4" d="M66413.26 109145.87c-2211.89,184.11 -4501.41,-227.87 -6466.38,-1286.64 -1974.21,-1088.68 -3420.24,-3024.99 -4248.15,-5094.81 -530.96,-1379.65 -771.25,-2908.59 -511.15,-4367.7 -16.26,1467.18 341.76,2890.32 934.49,4189.56 2125.42,4480.34 5516.31,6052.96 10291.19,6559.59z"/>
   <path class="fil4" d="M57589.26 103278.85c-3412.45,-4217.84 -1039.34,-10303.6 4829.51,-9202.23 3764.5,773.95 6936.27,3969.1 7646.45,7747.35 363.02,1903.89 -179.98,4121.85 -1825.6,5290.27 -1556.55,1154.66 -3798.74,1256.91 -5479.37,330.22 745.76,93.4 1465.45,178.43 2179.47,146.69 3207.75,-12.7 5019.97,-2583 4438.6,-5647.9 -652.65,-3474.58 -3636.08,-6464.37 -7092.19,-7163.57 -2052.8,-420.16 -4342.7,277.31 -5246.22,2288.46 -913.71,1993.25 -298.09,4281.71 549.35,6210.71z"/>
   <path class="fil4" d="M54210.38 83832.37c-238.55,-2170.34 368.99,-4457.45 1795.97,-6146.84 1066.46,-1240.75 2430.63,-2269.41 3996.89,-2776.33 519.33,-164.1 1060.5,-267.8 1598.11,-261.45 -1036.45,276.26 -1957.86,782.51 -2798.56,1383.99 -2776.72,2030.19 -3993.43,4443.89 -4592.41,7800.63z"/>
   <path class="fil4" d="M58756.91 77323.57c916.21,-1124.27 2332.9,-1907.16 3808.26,-1900.81 1449.2,25.49 2426.4,1106.38 2529.8,2502.29 89.56,1101.76 -231.81,2159.75 -691.51,3134.74 -945.07,1883.88 -2464.1,3522.19 -4381.17,4439.37 -1052.99,477.39 -2337.42,741.91 -3427.16,163.71 -1474.98,-813.86 -1562.51,-2993.34 -714.02,-4224.86 -27.51,975.75 -189.11,1985.07 236.34,2858.96 1014.9,1863.01 3538.74,792.61 4846.45,-194.78 1065.4,-807.52 1982.96,-1849.26 2613.77,-3035 807.81,-1453.43 1510.19,-4224.09 -550.02,-4912.71 -1507.78,-361.2 -2914.27,481.52 -4270.74,1169.09z"/>
   <path class="fil4" d="M70463.83 93000.26c-530.2,-543.96 -761.64,-1369.85 -659.68,-2155.43 329.84,-2709.39 3538.74,-3727.08 5593.94,-2095.5 2285,1695.44 1971.04,5432.72 -926.31,6215.23 -562.04,155.25 -1201.22,115.33 -1694.1,-208.16 384.57,-62.43 725.37,-105.14 1056.65,-181.7 1710.55,-271.93 2766.81,-2036.16 2232.28,-3676.97 -456.13,-1576.17 -2293.36,-2616.56 -3861.07,-2049.23 -1767.4,601.47 -2168.51,2457.46 -1741.71,4151.76z"/>
   <path class="fil4" d="M90782.75 94409.35c2489.21,2101.08 2301.15,6011.98 -230.38,8003.79 -1972.38,1623.78 -5062.29,1523.26 -6945.41,-204.31 -1932.94,-1661.88 -2378.49,-4721.21 -975.46,-6844.6 962.67,-1553.57 2803.84,-2503.26 4619.24,-2356.57 40.59,3.56 38.86,62.82 0,65.99 -3591.64,273.76 -5817.97,4082.69 -4081.64,7259.09 782.8,1397.73 2301.93,2374.93 3913.69,2415.91 2863.87,165.06 5228.9,-2379.84 4979.48,-5214.86 -82.53,-1129.94 -572.91,-2216.41 -1345.13,-3055.67 -41.93,-40.3 22.99,-109.08 65.61,-68.77z"/>
   <path class="fil4" d="M85047.99 92210.82c2675.52,-1170.53 6039.97,-553.96 7475.8,2172.07 190.74,356.2 350.23,724.89 445.55,1118.98 8.37,36.27 -13.75,72.63 -49.83,81.48 -31.74,7.4 -62.71,-8.47 -76.56,-35.98 -383.8,-669.19 -856.19,-1282.02 -1400.53,-1790.67 -1680.25,-1606.28 -4157.05,-1713.82 -6361.54,-1444.68 -58.29,13.75 -91.09,-77.63 -32.89,-101.2z"/>
   <path class="fil4" d="M73306.15 68240.24c-12870.34,0 -23340.83,10470.49 -23340.83,23340.83 0,12870.05 10470.49,23340.83 23340.83,23340.83 12870.05,0 23340.83,-10470.78 23340.83,-23340.83 0,-12870.34 -10470.78,-23340.83 -23340.83,-23340.83zm0 47537.46c-13342.34,0 -24197.02,-10854.58 -24197.02,-24196.63 0,-13342.06 10854.68,-24196.64 24197.02,-24196.64 13342.05,0 24197.02,10854.58 24197.02,24196.64 0,13342.05 -10854.97,24196.63 -24197.02,24196.63z"/>
   <path class="fil0" d="M96611 119265.27c-60.31,134.37 -93.78,204.98 -93.78,204.98 -1656.68,-2922.74 -4872.23,-1947.28 -10911.43,487.87 -689.68,277.61 -1523.65,624.09 -2474.1,1002.21 -7349.32,2938.32 -21561.7,7953.4 -28921.31,361.67 -5247.26,-5411.94 -4529.01,-11225.77 -3287.97,-14776.05 724.99,-2071.94 1628.12,-3373.68 1628.12,-3373.68 0,0 1289.71,3695.05 4781.22,3197.26 3614.16,-517.88 12029.64,-6986.09 22734.36,-7675.78 2828.56,-181.7 5815.56,40.59 8918.17,881.3 14162.46,3844.52 8456.08,17830.09 7626.72,19690.22z"/>
   <path class="fil1" d="M96611 119265.27c-60.31,134.37 -93.78,204.98 -93.78,204.98 -1656.68,-2922.74 -4872.23,-1947.28 -10911.43,487.87 -689.68,277.61 -1523.65,624.09 -2474.1,1002.21 -909.77,-109.27 -1649.86,-225.37 -2207.95,-322.72 -582.15,-102.73 -787.03,-837.53 -338.02,-1220.94 166.51,-141.21 341.09,-285.78 519.62,-427.28 489.32,-388.41 258.95,-1168.71 -360.13,-1244.6 -954.98,-117.45 -1814.34,-336.19 -2429.96,-524.53 -494.61,-151.4 -657.55,-768.75 -306.17,-1148.7 676.22,-731.62 1564.24,-1535.29 2280.67,-2152.64 95.61,-83.97 162.94,-183.43 200.07,-289.24 141.02,-385.24 -84.36,-854.46 -541.55,-931.7 -1903.89,-322.81 -3826.25,-950.36 -4902.52,-1335.31 -455.85,-163.33 -615.23,-728.07 -307.62,-1104.84 1442.85,-1769.23 3896.76,-3577.22 5427.05,-4616.46 492.88,-336.57 368.31,-1099.93 -208.44,-1256.62 -1560.69,-421.89 -3054.33,-980.37 -3987.47,-1355.32 -474.41,-190.17 -588.78,-807.13 -218.64,-1162.08 1511.92,-1442.85 3077.51,-2479.01 4315.48,-3173.6 2828.56,-181.7 5815.56,40.59 8918.17,881.3 14162.46,3844.52 8456.08,17830.09 7626.72,19690.22z"/>
   <path class="fil2" d="M65115.37 125322.84c-4134.16,0 -8039.1,-1044.62 -10904.99,-4000.84 -3197.26,-3297.78 -4179.75,-6745.14 -4178.3,-9738.09 0.67,-1918.81 405.63,-3650.9 890.33,-5037.96 0,0 -2140.61,11370.63 7627.11,12187.67 437.09,36.65 883.99,54.06 1338.1,54.06 6264.58,0 14029.91,-3298.17 20602.2,-5158 -37.13,105.81 -104.46,205.27 -200.07,289.24 -716.43,617.35 -1604.45,1421.02 -2280.67,2152.64 -128.42,138.71 -188.05,309.44 -188.05,477.01l0 0c0,291.74 180.26,575.7 494.22,671.69 615.62,188.34 1474.98,407.08 2429.96,524.53 389.47,47.61 625.14,373.99 624.37,706.32 -0.29,196.13 -82.92,394 -264.24,538.28 -178.53,141.5 -353.11,286.07 -519.62,427.28 -167.56,142.84 -244.13,335.13 -244.13,524.91l0 0c0.39,318.87 217.3,631.78 582.15,696.03 558.09,97.35 1298.18,213.45 2207.95,322.72 -4487.28,1794.33 -11533.68,4362.51 -18016.32,4362.51z"/>
   <path class="fil3" d="M96611 119265.27c-60.31,134.37 -93.78,204.98 -93.78,204.98 -1656.68,-2922.74 -4872.23,-1947.28 -10911.43,487.87 -689.68,277.61 -1523.65,624.09 -2474.1,1002.21 -909.77,-109.27 -1649.86,-225.37 -2207.95,-322.72 -582.15,-102.73 -787.03,-837.53 -338.02,-1220.94 166.51,-141.21 341.09,-285.78 519.62,-427.28 489.32,-388.41 258.95,-1168.71 -360.13,-1244.6 -954.98,-117.45 -1814.34,-336.19 -2429.96,-524.53 -494.61,-151.4 -657.55,-768.75 -306.17,-1148.7 676.22,-731.62 1564.24,-1535.29 2280.67,-2152.64 95.61,-83.97 162.94,-183.43 200.07,-289.24 3593.76,-1019.14 6832.87,-1607.92 9271.68,-988.84 5100.77,1293.28 7004.37,3573.56 6849.5,6624.43z"/>
   <path class="fil8" d="M96517.22 119470.25c-83.01,-145.73 -170.74,-279.43 -261.45,-406.02 0.29,-1.06 0.68,-2.12 1.06,-2.89 90.61,126.69 177.38,262.89 260.39,408.91 0,0 33.47,-70.61 93.78,-204.98l0 0c386.59,-867.45 1833.97,-4371.27 1832.04,-8254.27 1.93,3883 -1445.45,7386.82 -1832.04,8254.27 -60.31,134.37 -93.78,204.98 -93.78,204.98z"/>
   <path class="fil9" d="M56696.71 106415.7c-0.39,0 -0.39,0 -1.06,0 0.67,0 0.67,0 1.06,0l0 0zm0 0c203.15,0 414.87,-14.81 635.04,-46.17 -220.56,31.36 -431.89,46.17 -635.04,46.17z"/>
   <path class="fil10" d="M88984.28 99575.05c-57.14,-15.59 -114.27,-30.78 -171.41,-45.89 57.14,15.11 114.27,30.3 171.41,45.89zm-172.09 -45.89c-13.46,-3.56 -27.22,-7.4 -40.2,-10.58 12.98,3.18 26.74,7.02 40.2,10.58zm-8746.08 -835.41c581.75,-37.42 1170.15,-57.52 1765.28,-58.87l0 0c-594.75,1.35 -1183.53,21.45 -1765.28,58.87z"/>
   <path class="fil11" d="M52549.85 103173.33l0 0 0 0zm0.29 -0.68c0.39,0 0.39,0 0.39,0 0,0 0,0 -0.39,0zm0.39 0c0,-0.38 0,-0.38 0,-0.38 0,0 0,0 0,0.38z"/>
   <path class="fil0" d="M55809.83 107549.59c-2505.08,0 -3710.15,-2240.55 -4045.66,-2996.9 426.51,-854.74 768.37,-1354.35 785.68,-1379.36l0 0c0.29,-0.39 0.29,-0.39 0.29,-0.68 0.39,0 0.39,0 0.39,0l0 0c0,-0.38 0,-0.38 0,-0.38l0 0c0,0 1132.06,3242.38 4145.12,3243.43 0.67,0 0.67,0 1.06,0l0 0c203.15,0 414.48,-14.81 635.04,-46.17l0 0c3614.16,-517.88 12029.64,-6986.09 22734.36,-7675.78 -584.94,328.11 -1242.88,732.68 -1934,1219.89 -10204.72,1021.63 -18191.97,7088.73 -21687.23,7589.69 -220.56,31.35 -431.8,46.26 -635.05,46.26z"/>
   <path class="fil12" d="M96611 119265.27c19.72,-388.42 5.97,-764.43 -43.38,-1127.45 1445.64,-4603.76 2969.1,-14323.48 -8470.21,-17428.98 -2442.27,-661.79 -4812.59,-940.16 -7090.85,-940.16 -615.91,0 -1225.47,20.1 -1827.71,58.87 -351.39,22.6 -700.27,51.55 -1046.74,86.09 691.12,-487.21 1349.06,-891.78 1934,-1219.89l0 0c601.86,-38.47 1211.13,-58.87 1827.03,-58.87 0.39,0 0.39,0 0.67,0 0.77,0 1.06,0 1.74,0 2211.21,0 4509.97,262.79 6876.44,883.7 12.98,3.18 26.74,7.02 40.2,10.58 0.29,0 0.29,0 0.68,0 57.14,15.11 114.27,30.3 171.41,45.89l0 0c7558.33,2051.73 9457.8,6991.96 9458.76,11435.95 1.93,3883 -1445.45,7386.82 -1832.04,8254.27z"/>
   <path class="fil13" d="M96517.22 119470.25c-83.01,-146.02 -169.78,-282.22 -260.39,-408.91 99.85,-277.22 205.27,-586.95 310.79,-923.52 49.35,363.02 63.1,739.03 43.38,1127.45l0 0c-60.31,134.37 -93.78,204.98 -93.78,204.98z"/>
   <path class="fil4" d="M52505.41 104071.17c-520.77,926.02 -1414.66,2763.35 -1824.92,5068.35 -790.29,4444.28 500.58,8443 3837.13,11884.68 2777.01,2864.54 6571.51,3881.27 10603.81,3881.27 7206.85,0.39 15174.28,-3246.61 19457.34,-4991.79 309.44,-126.29 599.46,-244.13 867.15,-352.44 5421.19,-2185.82 8983.88,-3443.8 10986.27,-976.13 795.78,-1975.17 2749.59,-7754.37 601.76,-12469.23 -1349.64,-2962.27 -4095.39,-5023.92 -8160.77,-6127.79 -10647.19,-2890.61 -19899.15,1615.41 -26020.88,4597.12 -2318.09,1129.17 -4148.97,2021.05 -5459.18,2207.95 -2746.42,392.35 -4256.7,-1583.58 -4887.71,-2721.99zm12611.01 21688.76c-4234,0 -8246.19,-1078.77 -11213.36,-4139.83 -4418.88,-4558.65 -4646.47,-9402.59 -4059.42,-12663.72 633.6,-3517.49 2286.34,-5928.4 2356.56,-6028.91 91.77,-132.27 249.42,-202.2 409.58,-179.98 159.1,21.55 292.8,130.53 345.71,282.23 48.67,137.26 1223.44,3357.03 4317.01,2916.1 1176.41,-167.95 2954.48,-1033.95 5205.14,-2130.04 6236.78,-3037.78 15661.97,-7628.17 26619.57,-4653.87 4324.71,1174.38 7257.64,3395.51 8717.13,6602.59 2787.21,6124.52 -760.57,13579.07 -913.03,13893.41 -69.45,143.23 -212.68,236.06 -371.39,241.25 -162.37,4.62 -307.62,-78.59 -386.02,-216.91 -1466.8,-2588 -4288.63,-1782.21 -10377.66,673.14 -267.41,107.54 -555.98,225.37 -864.66,351 -4346.54,1771.24 -12401.89,5053.15 -19785.16,5053.54z"/>
   <path class="fil0" d="M60840.1 90297.02c-3286.15,2473.63 -8331.61,2335.69 -10857.85,-2968.71 -307.62,-652.27 -581.66,-1382.16 -807.13,-2194.58 -575.03,-2066.93 -756.63,-4157.53 -605.33,-6177.14 196.81,-2633.49 955.27,-5147.71 2142.45,-7336.04 3.46,-4.9 5.19,-9.91 6.63,-13.37 47.33,-87.53 96,-174.58 144.67,-262.12l1.74 -5.29 1.73 -1.44c18.37,-32.03 37.13,-65.6 55.4,-97.73 405.35,-706.23 856.19,-1377.15 1347.34,-2003.06 1400.82,-1785.68 3128.01,-3215.54 5066.91,-4118.67l2162.84 0c-2234.79,2554.81 -2093.68,8119.89 -2093.68,8119.89 0,0 -220.18,2226.42 2045,5734.76 465.66,719.69 955.36,1506.72 1405.82,2325.88 460.75,833.97 881.3,1701.79 1195.94,2566.45 879.46,2411.58 945.06,4807.97 -1212.48,6431.17z"/>
   <path class="fil1" d="M62627.6 86709.61c0,1363.79 -494.22,2615.12 -1787.5,3587.41 -3286.15,2473.63 -8331.61,2335.69 -10857.85,-2968.71 0,0 195.17,-628.99 844.65,-1515.19 729.79,-997.2 2034.71,-2320.88 4278.05,-3442.36 2208.43,-1103.49 4276.71,-1216.03 5751.69,-1071.36 460.75,833.97 881.3,1701.79 1195.94,2566.45 60.31,164.67 116.1,329.45 169.67,494.22 42.33,136.21 82.54,274.05 119.57,410.25 16.64,60.7 33.57,119.57 46.94,179.98 15.2,58.86 30.4,119.56 43.77,180.26 13.37,53.57 25.39,109.36 37.03,164.77 38.76,183.05 70.51,364.75 95.9,546.36 8.56,58.96 15.2,117.83 21.93,175.07 6.74,58.86 11.64,117.83 16.55,174.97 5.29,58.86 10.29,117.44 13.75,174.97 6.74,114.27 9.91,228.54 9.91,342.91z"/>
   <path class="fil1" d="M50258.12 79561.92c-257.11,8.46 -491.05,-16.55 -704.4,-66.95 -395.15,-96 -720.08,-286.17 -983.93,-538.38 11.64,-164.77 26.84,-328.1 43.77,-492.88 0,-6.63 1.73,-13.37 1.73,-20.1 16.55,-156.21 35.3,-312.91 55.41,-469.12 1.73,-13.47 3.46,-26.84 4.9,-40.3 38.86,-306.18 87.44,-608.89 143.23,-911.5 1.44,-10.29 3.17,-20.11 3.17,-28.57 26.84,-141.5 55.41,-282.61 83.98,-422.28 5.29,-26.83 10.19,-53.67 16.93,-79.06 32.13,-146.41 63.87,-292.42 99.17,-437.09 37.03,-156.6 75.8,-312.91 117.83,-469.22 33.48,-128.03 69.07,-253.94 105.81,-380.24l1.73 -5c15.2,-53.96 30.4,-107.54 47.23,-161.5 16.64,-58.97 35.3,-117.55 53.68,-174.97 30.3,-99.17 60.69,-196.52 94.17,-294.25 30.39,-94.17 60.69,-186.61 94.17,-279.05 15.2,-45.49 30.39,-90.99 47.32,-134.76 31.75,-88.88 63.87,-178.14 97.35,-267.41 28.57,-79.07 58.87,-158.04 90.99,-235.28 28.57,-77.24 58.58,-154.86 92.44,-232.2 28.57,-77.24 60.31,-153.04 94.17,-228.55 21.93,-55.69 43.77,-109.37 68.78,-163.33 37.13,-87.15 74.16,-173.24 114.37,-258.94 38.76,-87.44 78.97,-173.24 119.56,-258.95 18.37,-42.03 38.48,-82.14 58.97,-124.56 53.58,-112.55 109.37,-223.65 166.5,-334.36 6.64,-15.2 13.37,-28.67 21.84,-43.77 62.14,-124.56 127.74,-247.3 193.34,-370.04 3.17,-5 6.73,-11.64 9.91,-16.93l0 -1.83c48.96,-92.44 99.46,-184.88 151.3,-275.49 -25.01,53.68 -196.51,435.36 -393.32,980.37 -300.98,822.33 -664.29,2014.71 -686.12,3023.65 -18.76,824.06 190.07,1524.03 847.63,1798.08 2039.8,849.16 2480.45,-1893.7 2480.45,-1893.7 0,0 307.91,4206.21 -2854.06,4308.46z"/>
   <path class="fil1" d="M54610.73 72010.7c0,0 -1947.66,715.08 -3688.32,-770.1 405.35,-706.23 856.19,-1377.15 1347.34,-2003.06 0,16.93 4.9,1925.82 2340.98,2773.16z"/>
   <path class="fil2" d="M49982.25 87328.31l0 0c-307.62,-652.27 -581.66,-1382.16 -807.13,-2194.58 -446.9,-1606.57 -656.5,-3227.56 -656.11,-4818.65 0,-455.36 16.93,-908.7 50.78,-1358.49 263.85,252.21 588.78,442.38 983.93,538.38 53.58,1352.14 240.19,2815.1 635.63,4337.02 189.78,731.62 403.61,1391 637.55,1981.13 -649.48,886.2 -844.65,1515.19 -844.65,1515.19z"/>
   <path class="fil3" d="M49784.1 75349.08c-178.24,1182.56 -292.9,2590.11 -230.38,4145.89 -395.15,-96 -720.08,-286.17 -983.93,-538.38 11.64,-164.77 26.84,-327.72 43.77,-492.88 0,-6.63 1.73,-13.37 1.73,-20.1 16.55,-156.21 35.3,-312.91 55.41,-469.12 1.73,-13.47 3.46,-26.84 4.9,-40.3 40.6,-306.18 87.44,-610.62 143.23,-911.5 1.44,-10.29 3.17,-20.11 3.17,-28.57 26.84,-141.5 55.41,-282.61 83.98,-422.28 5.29,-26.83 10.19,-53.67 16.93,-79.06 32.13,-146.41 63.87,-292.42 99.17,-437.09 37.03,-156.6 75.8,-312.91 117.83,-469.22 33.48,-128.03 69.07,-253.94 105.81,-380.24l1.73 -5c15.2,-53.96 30.4,-107.54 47.23,-161.5 16.64,-58.97 35.3,-117.55 53.68,-174.97 30.3,-99.17 60.69,-196.52 94.17,-294.25 30.39,-94.17 60.69,-186.61 94.17,-279.05 15.2,-45.49 30.39,-90.99 47.32,-134.76 31.75,-88.88 63.87,-178.14 97.35,-267.41 28.57,-79.07 58.87,-158.04 90.99,-235.28 28.57,-77.24 58.58,-154.86 92.44,-232.2 28.57,-77.24 60.31,-153.04 94.17,-228.55 21.93,-55.4 43.77,-109.37 68.78,-163.33 37.13,-87.15 74.16,-173.24 114.37,-258.94 38.76,-87.44 78.97,-173.24 119.56,-258.95 18.37,-42.03 38.48,-82.14 58.97,-124.56 53.58,-112.55 109.37,-223.65 166.5,-334.36 6.64,-15.2 13.37,-28.67 21.84,-43.77 62.14,-124.56 127.74,-247.3 193.34,-370.04 3.17,-5 6.73,-11.64 9.91,-16.93 -28.67,72.33 -121.01,316.08 -242.02,703.05 -201.8,644.19 -484.41,1690.16 -686.12,3023.65z"/>
   <path class="fil3" d="M62627.6 86709.61c0,1363.79 -494.22,2615.12 -1787.5,3587.41 -3286.53,2473.63 -8331.61,2335.69 -10857.85,-2968.71 0,0 195.17,-628.99 844.65,-1515.19 1900.33,4808.35 5157.9,5142.81 8307.84,3748.63 3538.36,-1565.59 2466.99,-5825.37 2466.99,-5825.37 0,0 196.81,16.54 450.85,129.47 60.31,164.67 116.1,329.45 169.67,494.22 41.94,136.21 82.54,274.05 119.57,410.25 16.64,60.7 33.57,119.57 46.94,180.26 15.2,58.58 30.4,119.28 43.77,179.98 13.37,53.57 25.39,108.98 37.03,164.77 38.76,183.05 70.51,364.75 95.9,546.36 8.56,58.96 15.2,117.83 21.93,175.07 6.74,58.86 11.64,117.83 16.55,174.97 5.29,58.86 10.29,117.44 13.75,174.97 6.74,114.27 9.91,228.54 9.91,342.91z"/>
   <path class="fil4" d="M56232.78 89446.03c429.68,791.65 1055.5,1469.69 1824.63,1924.48 479.03,308.96 43.67,1024.04 -451.22,738.35 -740.09,-692.86 -1217.48,-1667.55 -1438.62,-2641.67 -8.47,-38.76 49.73,-58.48 65.21,-21.16z"/>
   <path class="fil4" d="M59929.18 87292.04c823.1,511.16 1518.36,1258.36 1963.91,2128.98 274.53,590.9 -636.78,922.85 -806.07,292.8 -169.01,-878.4 -597.63,-1696.21 -1199.4,-2367.43 -29.33,-26.45 8.08,-76.28 41.56,-54.35z"/>
   <path class="fil4" d="M56368.6 92309.9c-751.43,0.38 -1495.75,-118.12 -2207.27,-359.46 -1798.47,-610.62 -4201.2,-2267.3 -5432.44,-6692.53 -1125.42,-4044.6 -829.35,-8420.1 833.2,-12320.03 1592.53,-3735.93 4355.78,-6738.41 7581.23,-8237.73 231.43,-107.92 506.92,-7.4 614.56,224.32 107.54,231.82 7.02,507.02 -224.7,614.56 -6508.42,3025.75 -10058.03,11760.2 -7912.8,19470.81 1122.83,4035.85 3250.85,5525.54 4838.37,6064.31 1975.84,670.25 4256.89,241.62 6102.59,-1147.26 3210.35,-2415.44 1043.95,-6765.92 -1498.55,-10703.28 -2325.87,-3600.78 -2127.24,-5933.68 -2117.33,-6031.02l30.68 -343.98c-274.14,198.25 -562.33,464.22 -737.01,790.2 -106.48,199.31 -341.47,292.13 -555.98,219.8 -214.12,-72.34 -344.65,-288.96 -308.67,-511.83 18.66,-114.75 390.24,-2318.18 1766.05,-3936.39 -479.8,119.66 -1063.29,321.08 -1713.44,658.33 -185.26,95.61 -411.31,56.08 -552.8,-96.67 -141.5,-153.04 -163.33,-381.69 -53.29,-558.48 87.44,-140.73 2169.28,-3457.56 4397.04,-4417.44 234.52,-101.19 506.93,7.02 608.12,241.63 100.9,234.61 -7.41,506.92 -242.02,607.82 -1145.43,493.94 -2302.88,1784.04 -3071.54,2778.17 1230.08,-377.84 2036.15,-307.62 2082.04,-303.1 196.9,19.05 360.23,161.31 405.73,354.27 45.49,192.57 -36.65,392.94 -204.31,498.07 -1025.1,643.52 -1659.09,1767.5 -2033.37,2707.95 313.58,-191.23 554.25,-291.75 577.14,-300.98 149.2,-61.37 319.93,-40.21 450.17,55.79 129.77,96 200.66,252.6 186.23,413.43l-109.75 1229.79c-1.74,22.6 -157.27,2143.5 1973.43,5443.01 1678.52,2598.58 5609.24,8685.01 1277.79,11944.7 -1434,1078.78 -3108,1643.22 -4749.1,1643.22z"/>
   <path class="fil0" d="M95615.44 44979.92c0,0 570.79,106.19 1460.84,28.86 0,0 -3030.28,14200.07 -24274.55,19764.76 -21398.08,4103.09 -30282.78,-7193.86 -30419.66,-7371.34l-1.73 -1.05c837.05,-313.97 1306.26,-655.83 1306.26,-655.83 -1532.4,-481.14 -2192.84,-1739.12 -2192.84,-1739.12 639.95,-145.05 1959.68,-600.13 1959.68,-600.13 -830.41,-422.94 -1189.87,-1452.66 -1189.87,-1452.66 1391.97,-1035.39 2299.04,-1865.22 2299.04,-1865.22 -553.19,-4378.96 -576.08,-8483.2 -576.08,-8483.2 -6268.14,-13699.12 -5658.58,-21835.84 -4738.91,-25462.21 385.63,-1519.81 1913.13,-2453.81 3439.57,-2098.87 5993.32,1388.02 13537.51,8812.94 13537.51,8812.94 3116.47,-1706.41 6735.53,-2525.95 6735.53,-2525.95 0,0 3617.03,-820.5 7165.68,-623.31 0,0 3607.81,-9951.84 8417.6,-13787.9 1223.83,-979.22 3006.04,-794.53 4006.51,410.73 2393.98,2877.05 6450.9,9955.68 6698.88,25020.02 0,0 1749.02,3712.94 3137.91,7902.02 0,0 22.61,6.74 63.87,19.24l1.45 -0.96c270.19,80.8 1345.79,386.68 2811.25,675.16 0,0 121.01,1083.39 -447,1822.8 0,0 1387.45,-158.81 2027.5,-303.38 0,0 -54.06,1419.96 -1228.44,2514.6z"/>
   <path class="fil14" d="M72034.04 61381.21c-18685.23,2929.08 -29483.73,-3872.81 -29651.68,-3978.62 136.98,177.76 9020.62,11473.75 30420.43,7371.24 21078.05,-5521.6 24225.2,-19543.43 24272.14,-19762.94 -105.81,167.95 -6918,10960.1 -25040.89,16370.32z"/>
   <path class="fil15" d="M95615.44 44979.92c0,0 570.79,106.19 1460.84,28.86 0,0 -3030.28,14200.07 -24274.55,19764.76 -21398.08,4103.09 -30282.78,-7193.86 -30419.66,-7371.34l-1.73 -1.05c837.05,-313.97 1306.26,-655.83 1306.26,-655.83 -1532.4,-481.14 -2192.84,-1739.12 -2192.84,-1739.12 639.95,-145.05 1959.68,-600.13 1959.68,-600.13 -830.41,-422.94 -1189.87,-1452.66 -1189.87,-1452.66 1391.97,-1035.39 2299.04,-1865.22 2299.04,-1865.22 0,0 2105.31,-1954.68 8372.1,-1406.78 6266.4,547.8 12595.14,-273.86 15646.68,-623.41 2725.54,-310.79 16568.27,-7044.58 23869.29,-8786.3l1.45 -0.96c270.19,80.8 1345.79,386.68 2811.25,675.16 0,0 121.01,1083.39 -447,1822.8 0,0 1387.45,-158.81 2027.5,-303.38 0,0 -54.06,1419.96 -1228.44,2514.6z"/>
   <path class="fil1" d="M47098.37 28176.75c0,0 -2982.76,1192.76 -459.02,3490.74 0,0 -193.24,619.47 -458.63,1587.14 -459.98,1680.44 -1131.68,4409.36 -1371.58,6766.98 0,0 -729.12,-1606.38 -1263.26,-3406.1 -532.32,-1798.75 -2430.63,-8333.91 -2747.1,-12682.67 -253.65,-3466.69 274.82,-4883.57 501.35,-5317.39 56.08,-109.66 92.72,-156.79 92.72,-156.79 0,0 3357.71,1883.4 7113.75,6497.64 0,0 -4541.24,22.13 -1408.23,3220.45z"/>
   <path class="fil1" d="M87394.35 30371.81c-1942.37,-3188.7 -5252.17,-6748.7 -5252.17,-6748.7 1285.19,-3161.77 -1919.48,-2950.15 -1919.48,-2950.15 1448.53,-4239.1 -2659.17,-2298.95 -2659.17,-2298.95 1400.14,-5783.91 3618.77,-8930.29 3618.77,-8930.29 0,0 1308.76,621.39 2896.28,4682.54 1587.52,4062.11 2691.69,10775.22 2986.22,12628.8 294.92,1853.58 329.55,3616.75 329.55,3616.75z"/>
   <path class="fil3" d="M47098.37 28176.75c0,0 -2982.76,1192.76 -459.02,3490.74 0,0 -193.24,619.47 -458.63,1587.14 -23.18,-18.28 -48.67,-36.55 -72.24,-55.79 -2694.86,-2142.16 -1270.38,-7637.5 -1759.03,-9027.45 -489.22,-1391.87 -3044.8,-5552.09 -3044.8,-5552.09l-4.52 -3.85c56.08,-109.66 92.72,-156.79 92.72,-156.79 0,0 3357.71,1883.4 7113.75,6497.64 0,0 -4541.24,22.13 -1408.23,3220.45z"/>
   <path class="fil3" d="M80223.09 20672c0,0 3204.96,-209.7 1918.41,2951.11 0,0 441.32,476.14 1097.82,1235.08 13.37,-25.97 28.19,-53.87 41.27,-81.76 1508.84,-3093.48 -2145.62,-7438.39 -2303.66,-8903.36 -158.33,-1466.9 354.56,-6322.58 354.56,-6322.58l2.11 -5.77c-97.73,-74.07 -151.02,-101 -151.02,-101 0,0 -2218.53,3146.38 -3618.38,8929.33 0,0 4107.03,-1938.23 2658.89,2298.95z"/>
   <path class="fil4" d="M41483.56 18298.02c1512.69,681.99 2746.33,1773.75 3988.81,2839.54 1207.19,1089.83 2340.7,2288.36 3366.95,3549.41 230.37,259.72 26.84,699.3 -316.08,697.38 -635.34,22.12 -1709.2,145.25 -2045.1,678.14 -135.44,264.52 13.75,586.76 159.77,856.09 197.58,333.78 472.39,655.06 766.64,959.98 210.27,208.73 131.58,584.84 -141.79,694.49 -281.55,120.24 -581.37,310.7 -801.55,523.28 -835.03,740.66 -204.21,1663.13 464.98,2253.73 126.69,115.43 169.39,292.42 121.01,445.36 -613.5,2027.69 -1172.94,4089.05 -1601.28,6166.76 -137.93,694.49 -269.52,1388.02 -427.18,2083.47 -53,233.75 -420.54,212.58 -421.89,-46.17 -3.27,-1447.66 293.86,-2867.43 568.97,-4279.5 294.24,-1412.07 645.91,-2797.21 1064.34,-4180.42 -0.67,-0.96 122.45,448.24 119.18,443.44 -1695.35,-1474.6 -1503.84,-3276.24 590.61,-4202.55l-147.08 696.41c-1319.82,-1282.21 -2006.23,-3068.46 275.49,-3741.79 482.59,-134.67 939.78,-192.38 1437.18,-205.85l-330.13 698.34 -770.48 -914.77c-1304.63,-1504.41 -2701.6,-2935.72 -4239,-4203.51 -615.62,-502.11 -1244.61,-998.45 -1863.4,-1489.02 -174.97,-118.31 -25.39,-414.58 181.03,-322.24z"/>
   <path class="fil4" d="M81333.22 9550.49c-1077.33,2127.73 -2054.82,4320.86 -2720.93,6617.88 -210.95,656.02 -454.41,1629.46 -632.45,2305.68l-599.08 -487.68c2717.09,-1206.23 4304.23,-109.66 3247,2824.14l-432.86 -564.64c452.58,-15.39 842.34,31.75 1268.85,168.34 1574.15,499.22 1650.04,2062.31 1074.92,3370.5l-83.2 -453.06c973.64,1067.71 1888.4,2166.21 2762.29,3313.75 857.15,1156.21 1736.71,2308.57 2357.91,3615.79 102.64,217.39 -200.36,427.09 -360.91,224.12 -1286.54,-1696.79 -2557.98,-3395.51 -3973.99,-4986.49 -467.1,-531.93 -934.2,-1070.6 -1412.17,-1584.25 -117.16,-126.01 -143.61,-303 -82.63,-453.06 182.76,-463.64 321.47,-931.12 251.63,-1404.38 -116.1,-771.44 -1072.13,-981.14 -1750.85,-957.09 -296.36,20.2 -527.8,-287.61 -429.01,-565.6 178.53,-565.59 363.41,-1160.05 247.69,-1719.88 -226.91,-858.01 -1724.4,-304.92 -2319.24,-53.86 -312.52,164.48 -695.65,-152.95 -598.59,-487.69 382.74,-1579.44 888.6,-3150.22 1508.74,-4653.68 318.3,-751.24 659.39,-1493.83 1035.78,-2219.1 378.6,-725.28 789.14,-1431.31 1339.16,-2063.28 67.43,-76.95 184.49,-85.61 261.73,-18.28 68.1,59.64 81.86,155.83 40.21,231.82z"/>
   <path class="fil4" d="M72802.4 64773.16l1.73 0 -1.73 0zm-29711.6 -7206.85c812.04,878.02 2971.8,2951.69 6646.65,4709.18 4413.68,2110.7 11981.06,4183.98 22970.4,2080.01 10823.22,-2837.7 16757.67,-7970.7 19830.66,-11777.52 2558.75,-3169.66 3613.47,-5971.77 3967.74,-7114.03 -589.16,4.9 -949.01,-60.02 -968.34,-63.49 -158.81,-29.33 -287.9,-145.72 -333.4,-300.98 -45.21,-155.25 0.67,-322.81 119.18,-432.85 596.96,-556.37 869.27,-1214.98 992.39,-1669.67 -654.76,104.75 -1407.93,190.84 -1450.64,195.75 -169,19.72 -336.57,-64.93 -420.83,-214.8 -84.65,-149.57 -71.57,-335.22 33.18,-471.33 289.25,-376.49 356.58,-886.87 367.26,-1208.63 -1519.52,-312.9 -2538.65,-622.25 -2584.15,-635.72 -132.65,-41.36 -237.78,-143.32 -281.45,-275.1 -1362.54,-4115.98 -3099.25,-7818.34 -3116.47,-7854.89 -25.78,-54.83 -39.53,-114.47 -40.59,-175.07 -246.25,-14924.86 -4241.41,-21915 -6601.14,-24753.57 -847.05,-1017.69 -2377.06,-1174.48 -3411,-350.13 -4658.78,3716.79 -8245.9,13502.21 -8281.49,13600.32 -64.16,176.99 -233.84,292.42 -426.13,280.88 -3446.68,-190.46 -7012.55,605.04 -7048.52,613.69 -35.3,7.7 -3598.67,827.24 -6624.14,2484.59 -165.73,90.42 -371.1,62.53 -505.86,-70.21 -74.74,-73.11 -7528.61,-7356.63 -13334.65,-8702.33 -1288.66,-299.15 -2601.66,502.12 -2926.59,1786.25 -906.01,3578.28 -1498.64,11607.27 4712.07,25180.57 25.4,55.4 38.77,115.33 39.15,176.02 0,40.5 28.86,4129.54 573.2,8430.97 17.31,137.94 -33.09,275.49 -135.44,369.37 -35.3,32.13 -821.27,750.38 -2057.7,1687.37 148.14,285.4 428.91,717.48 852.63,932.37 153.04,78.01 244.81,239.52 233.17,411.02 -12.03,171.41 -124.86,319.26 -287.52,375.34 -40.59,14.14 -757.4,260.67 -1393.5,448.72 307.33,357.06 836.85,833.97 1615.42,1078.78 154.48,48.28 268.08,179.58 294.24,339.36 25.68,159.48 -40.3,320.31 -171.12,415.25 -16.26,11.64 -314.74,226.43 -846.67,474.51zm20779.96 8522.73c-6524.96,0 -11346.3,-1524.04 -14552.7,-3065.29 -4944.56,-2376.67 -7184.35,-5240.92 -7277.17,-5361.83 -82.92,-107.25 -109.66,-247.69 -72.24,-377.84 37.03,-130.53 133.61,-235.66 260.67,-283.66 185.17,-69.84 351.68,-140.73 497.02,-208.83 -1095.03,-622.64 -1587.43,-1539.91 -1612.15,-1587.14 -62.14,-117.83 -65.31,-257.5 -9.91,-378.22 55.79,-120.62 164.39,-208.83 294.25,-238.07 300.59,-68.1 767.98,-211.33 1165.54,-339.07 -478.36,-519.33 -692.09,-1119.65 -704.5,-1154.66 -61.37,-176.32 -1.06,-372.45 148.9,-483.94 1020.96,-758.84 1783.27,-1412.17 2101.47,-1692.27 -479.41,-3910.23 -543.57,-7592.19 -550.98,-8217.62 -6279.2,-13762.02 -5657.52,-21984.36 -4725.82,-25664.59 438.53,-1731.43 2210.45,-2812.6 3949.66,-2409.57 5528.34,1281.26 12184.6,7434.54 13514.24,8706.17 3062.4,-1614.07 6422.33,-2386.47 6567.96,-2419.18 145.73,-33.66 3510.17,-785.87 6969.45,-648.32 651.98,-1719.88 4005.84,-10141.33 8441.94,-13680.16 1396.01,-1113.88 3460.44,-902.27 4602.7,471.33 2426.78,2919.37 6532.08,10071.11 6797.37,25195.09 262.79,567.52 1792.12,3917.82 3044.52,7652.88 408.13,115.43 1377.54,377.07 2625.7,621.39 183.44,35.59 322.43,186.61 342.92,372.26 4.13,37.03 70.12,671.02 -137.94,1345.89 414.1,-56.08 897.46,-128.41 1197.95,-196.52 130.25,-29.62 265.68,3.18 368.03,88.21 102.25,84.65 159.38,212.29 154.48,345.32 -2.12,53.29 -51.17,1092.92 -770.87,2126.86 160.54,-1.34 341.19,-8.75 538.76,-25.68 135.82,-11.64 267.7,41.56 357.35,143.23 89.94,101.58 125.91,239.9 97.73,372.54 -31.84,148.81 -818.48,3698.9 -4255.55,7974.84 -3154.56,3923.6 -9242.05,9210.69 -20328.83,12114.38 -9.14,2.5 -18.37,4.62 -27.51,6.35 -3301.63,633.22 -6304.11,895.72 -9012.44,895.72z"/>
   <path class="fil0" d="M92591.12 41543.82c600.8,3349.63 1130.33,15169.47 -18752.94,23167.3 -316.76,128.03 -643.13,229.99 -975.47,305.5 -335.51,75.8 -676.98,125.24 -1021.25,147.07 -21389.22,1352.92 -26005.68,-9540.52 -26907.46,-12822.43 -52.52,-193.25 -67.62,-391.88 -47.9,-584.17 41.26,-367.25 209.5,-717.86 486.81,-980.75 941.61,-887.55 2245.08,-1944.49 2245.08,-1944.49 -1726.13,-2644.07 -356.29,-5299.4 -356.29,-5299.4 -2899.17,-11695.66 1630.91,-20056.51 3565.87,-22942.22 467,-697.38 1421.69,-869.56 2095.79,-373.21 2505.47,1847.81 4374.54,5617.5 4374.54,5617.5 2900.13,-1563.09 6147.03,-2361.47 6147.03,-2361.47 0,0 3274.5,-679.1 6565.26,-518.46 0,0 60.99,-4207.36 1525.77,-6954.55 394.38,-738.74 1329.93,-994.61 2051.74,-566.56 2989.78,1768.94 10681.34,7362.39 13106.39,19164.93 0,0 2380.22,1805.48 1962.47,4935.51 0,0 1631.58,391.5 2863.87,786.84 554.92,179.87 967,649.47 1070.69,1223.06z"/>
   <path class="fil4" d="M68288.29 65279.41l-0.67 0 0.67 0 0 0zm0 0c1128.89,0 2314.24,-37.42 3553.17,-115.72 344.27,-21.83 685.74,-71.27 1021.25,-147.07l0 0c-335.51,75.8 -676.98,125.24 -1021.25,147.07 -1240.37,78.3 -2423.22,115.72 -3553.17,115.72z"/>
   <path class="fil16" d="M79558.8 62019.72c14048.28,-7745.62 13568.87,-17485.74 13032.32,-20475.9 -34.53,-190.46 -102.63,-368.99 -199.02,-529.82 0.39,-6.73 0.39,-13.76 0.39,-20.49 100.9,165.06 172.47,350.61 208.54,547.8 536.16,2989.11 1015.29,12722.98 -13015.39,20466.77 -9.24,3.85 -17.99,7.79 -26.84,11.64z"/>
   <path class="fil4" d="M72894.17 65009.21c321.37,-74.45 637.06,-173.91 944.01,-298.09 2133.59,-858.02 4031.9,-1760.38 5720.62,-2691.4 8.85,-3.85 17.6,-7.79 26.84,-11.64 -1692.95,934.49 -3596.65,1839.73 -5737.55,2700.92 -310.12,124.47 -628.99,225.09 -953.92,300.21z"/>
   <path class="fil2" d="M68288.29 65279.41l-0.67 0c-18293.63,-0.39 -22475.12,-9777.92 -23344.39,-12905.64 -1.06,-2.79 -1.82,-6.06 -2.88,-9.14 -2.02,-7.79 -4.14,-15.58 -6.35,-23.37l0 0c-37.71,-139 -55.98,-280.4 -56.37,-420.45 0,-55.02 2.79,-109.37 8.47,-163.72 980.37,1948.43 6524.57,11277.91 22909.32,11277.24 1436.88,0 2959.09,-71.95 4567.1,-226.82 18768.43,-6842.87 19974.56,-19370 20029.58,-21793.51 96.39,160.83 164.49,339.36 199.02,529.82 536.55,2990.16 1015.96,12730.28 -13032.32,20475.9 -1688.72,931.02 -3587.03,1833.38 -5720.62,2691.4 -306.95,124.18 -622.64,223.64 -944.01,298.09 -10.58,2.41 -20.88,4.91 -31.46,7.41l0 0c-335.51,75.8 -676.98,125.24 -1021.25,147.07 -1238.93,78.3 -2424.28,115.72 -3553.17,115.72l0 0z"/>
   <path class="fil2" d="M65943.66 56024.28c-1573.38,0 -3097.71,-397.55 -3001.42,-1195.55 0,0 127.07,8.76 345.42,8.76 742.2,0 2537.49,-100.81 3970.82,-986.63 1854.93,-1146.87 1400.53,-3014.5 1400.53,-3014.5l945.84 -214.5 945.84 -214.12c0,0 395.05,1881.38 2563.27,2116.28 191.52,20.87 382.74,30.39 572.53,30.39 1958.23,-0.38 3743.62,-1008.26 3743.62,-1008.26 680.93,1072.42 -2722.37,2987.28 -4605.1,3080.1 -28.28,1.35 -56.18,2.12 -83.98,2.12 -1831.65,-0.39 -2899.84,-2963.33 -2899.84,-2963.33 0,0 322.81,3230.06 -1416.02,3957.84 -638.6,267.31 -1568.09,401.4 -2481.51,401.4z"/>
   <path class="fil2" d="M47615.11 48833.97l2.5 -2.5 0 0c0,0 0.38,0 0.38,0.38 0,0 -1.06,0.68 -2.88,2.12z"/>
   <path class="fil2" d="M46419.27 51332.7c-804.34,0 -1374.85,-111.48 -1374.85,-111.48l2570.69 -2387.25c1.82,-1.44 2.88,-2.12 2.88,-2.12 0,-0.38 -0.38,-0.38 -0.38,-0.38l-277.32 -809.25c449.5,1022.41 1476.04,1779.81 2058.18,2145.62 194.4,122.45 181.99,408.52 -20.77,516.44 -981.14,522.12 -2102.24,648.42 -2958.43,648.42z"/>
   <path class="fil2" d="M88742.26 39554.12c-55.3,-13.46 -85.7,-20.2 -85.7,-20.2 2.12,-15.39 3.94,-29.82 5.67,-45.21l4.91 42.33 75.12 23.08z"/>
   <path class="fil16" d="M92012.54 40582.39c-4.91,-3.84 -9.91,-7.69 -14.82,-11.54l21.55 6.74c0,0 -2.12,1.92 -6.73,4.8z"/>
   <path class="fil2" d="M88075.19 41965.71c-65.61,0 -131.21,-1.35 -197.58,-4.53 -229.32,-9.9 -363.98,-262.79 -241.24,-456.8 367.54,-581.09 967.28,-1706.9 931.98,-2823.66l93.88 807.99c-1.73,15.39 -3.55,29.82 -5.67,45.21 0,0 30.4,6.74 85.7,20.2l3255.46 1016.73c4.91,3.85 9.91,7.7 14.82,11.54 -122.74,90.42 -1933.23,1383.32 -3937.35,1383.32z"/>
   <path class="fil1" d="M55275.4 27446.67c-898.61,741.62 -3401.19,2878.97 -5657.13,5469.37 -328.49,377.07 -948.34,123.12 -909.87,-376.1 173.24,-2249.89 813.58,-6518.81 3160.24,-9777.73 203.53,-282.8 625.42,-280.88 833.58,-1.93 538.28,722.39 1543.37,2129.65 2684.67,4017.87 133.32,220.27 86.76,504.99 -111.49,668.52z"/>
   <path class="fil1" d="M72529.7 23537.5c1130.62,281.84 4309.9,1132.16 7461.95,2496.13 458.93,199.12 908.42,-297.22 659,-731.04 -1126.38,-1955.55 -3544.03,-5531.9 -7066.13,-7460.51 -305.5,-167.37 -685.45,15.39 -752.78,357.83 -174.68,883.02 -474.89,2586.55 -690.84,4782.57 -25.39,255.87 139.38,492.5 388.8,555.02z"/>
   <path class="fil1" d="M72130.03 30227.52c786.36,3470.55 -1622.82,6975.71 -5380.97,7827.96 -3758.44,851.28 -7443.19,-1273.56 -8229.55,-4744.1 -564.83,-2493.25 518.18,-5002.85 2565.39,-6535.16 -879.46,1154.28 -1257.3,2710.64 -901.68,4279.5 620.9,2740.46 3244.87,4481.5 5861.05,3888.97 2616.18,-592.53 4232.95,-3295.47 3612.43,-6034.97 -355.62,-1569.82 -1367.35,-2811.64 -2658.22,-3473.43 2507.58,500.19 4566.72,2297.99 5131.55,4791.23z"/>
   <path class="fil1" d="M54961.73 32773.68c384.56,-31.74 716.13,273.18 720.36,659.86 11.26,983.07 286.46,3094.44 2270.48,4547.87 3226.5,2363.4 4431.96,3955.05 5122.03,6287.28 48.67,164.39 -145.73,291.74 -273.76,178.14 -804.73,-712.96 -2703.33,-2199.19 -5480.05,-3163.02 -3763.06,-1305.49 -4960.72,-4520.16 -4559.99,-6340.08 305.79,-1388.99 1329.25,-2096.95 2200.93,-2170.05z"/>
   <path class="fil1" d="M75108.85 28209.46c-360.91,136.59 -528.47,555.01 -366.2,905.14 413.81,892.65 1075.31,2915.53 -88.49,5082.69 -1892.35,3523.45 -2294.14,5478.99 -1911.4,7880.96 26.84,169.39 256.83,200.46 323.49,42.42 418.81,-989.9 1491.62,-3149.46 3581.83,-5215.62 2832.8,-2801.06 2527.98,-6217.74 1381.39,-7686.56 -874.17,-1121.58 -2103.2,-1319.73 -2920.62,-1009.03z"/>
   <path class="fil1" d="M62354.9 39588.75c-55.69,-5.77 -80.41,69.26 -35.3,104.85 323.2,252.98 1013.17,906.11 1329.25,2073.18 420.54,1551.84 743.36,3176.4 2189.38,2728.73 1619.27,-501.64 507.99,-4499.88 -3483.33,-4906.76z"/>
   <path class="fil1" d="M71374.75 37544.71c47.61,-28.86 102.63,27.89 76.85,79.84 -182.37,367.44 -523.46,1254.32 -305.78,2443.23 289.62,1581.94 698.43,3187.07 -799.44,3406.09 -1677.08,245.57 -2397.54,-3840.87 1028.37,-5929.16z"/>
   <path class="fil1" d="M57232.2 52477.08c-830.8,205.36 -4927.53,1050.59 -7241.49,-1560.69 -30.29,-34.15 -81.08,-39.82 -115.62,-10.19 -311.17,263.84 -1629.55,1537.02 -535.87,3360.59 1257.3,2096.18 6731.29,2004.41 7994.55,-1680.63 21.55,-62.82 -36.93,-124.95 -101.57,-109.08z"/>
   <path class="fil1" d="M53274.36 57435.39c749.32,-133.7 3032.87,-740.47 4577.3,-3308.36 82.92,-137.94 286.84,-121.3 347.83,27.51 268.85,654.76 694.97,2126.95 -139.67,3531.33 -1132.74,1905.72 -3945.14,2041.15 -4927.25,28.57 -57.13,-116.78 13.76,-256.44 141.79,-279.05z"/>
   <path class="fil1" d="M81558.69 46965.28c838.2,-172.85 4899.06,-1175.82 5861.73,-4529.3 12.41,-44.06 55.79,-70.89 99.84,-59.25 394.38,104.07 2132.54,684.77 1931.79,2801.73 -230.66,2433.13 -5209.75,4709.66 -7938.09,1929.38 -46.65,-47.62 -20.49,-128.8 44.73,-142.56z"/>
   <path class="fil1" d="M87267 49733.54c-733.84,202.48 -3055.77,639.28 -5556.24,-1012.5 -134.47,-88.49 -310.79,14.53 -301.94,175.07 39.44,706.61 289.54,2218.53 1648.13,3125.89 1843.58,1231.62 4439.36,141.88 4458.41,-2097.62 1.06,-130.14 -123.12,-225.37 -248.36,-190.84z"/>
   <path class="fil4" d="M48063.16 42801.89c-840.99,1578.96 -1203.63,3564.03 -257.89,5179.45 293.87,531.93 681.61,1023.08 1125.43,1472.77 182.38,181.41 -73.39,477.39 -279.05,320.41 -2075.4,-1489.12 -2798.27,-4135.99 -1573.09,-6419.54 160.54,-304.83 340.41,-583.78 577.52,-855.8 92.44,-105.52 252.6,-116.39 358.41,-24.34 96.67,83.97 111.87,222.58 48.67,327.05z"/>
   <path class="fil4" d="M85892.54 33835.62c2726.6,1267.78 3673.5,4385.31 2237.76,6993.98 -55.11,104.27 -183.82,144.48 -287.89,89.46 -94.94,-50.02 -136.59,-161.6 -101.97,-259.71 206.72,-596.38 344.94,-1206.23 380.63,-1812.23 156.98,-1866.08 -1025.87,-3500.36 -2465.26,-4562.29 -258.56,-169.3 -47.61,-569.45 236.73,-449.21z"/>
   <path class="fil4" d="M68794.16 47067.25c-1735.37,393.32 -2626.47,1128.21 -3066.74,1668.7 -327.33,401.4 -238.07,995.47 187.38,1291.16 455.75,316.37 973.64,408.14 1300.69,432.09 204.98,15.2 399.28,102.63 547.13,245.57 345.03,334.07 1071.36,873.79 2005.56,662.18 934.1,-211.72 1357.15,-1011.83 1524.33,-1461.9 71.66,-192.67 209.59,-355.23 388.03,-457.29 293.57,-167.85 739.79,-488.55 1013.26,-997.97 234.9,-437.76 37.04,-985.66 -412.08,-1198.05 -630.04,-298.09 -1751.52,-577.82 -3487.56,-184.49z"/>
   <path class="fil4" d="M69943.53 51118.58c578.49,1551.55 454.7,3710.15 -1071.07,4684.46 -506.92,331.38 -1118.31,462.2 -1651.01,514.43 -1073.1,130.91 -2208.33,93.11 -3268.83,-220.57 -528.76,-150.24 -1029.04,-350.61 -1507.78,-539.33 -480.47,-188.06 -946.8,-354.56 -1439.68,-459.7 -131.2,-27.12 -215.56,-155.92 -187.28,-286.84 24.33,-114.27 125.62,-192.18 237.78,-191.13 1082.62,-1.05 2091.56,500.96 3092.03,771.83 974.7,262.89 1983.35,290.4 2985.55,164.78 2473.34,-159.49 2603.58,-2331.17 2380.23,-4319.42 -44.44,-263.18 334.84,-367.93 430.06,-118.51z"/>
   <path class="fil4" d="M66218.86 55852.2c0,0 -2430.24,-1285.2 -4171.58,-1532.22 -1741.33,-246.53 -2597.13,743.36 -1726.8,1342.34 870.23,599.07 2592.52,762.02 5898.38,189.88z"/>
   <path class="fil4" d="M69948.06 51138.69c1106.66,3117.81 2382.34,3883.39 5397.9,2276.82 1437.18,-681.89 2262.29,-2153.7 3692.16,-2870.22 256.06,-123.8 481.14,232.88 252.98,408.9 -400.05,307.24 -749.32,659.29 -1102.15,1036.07 -350.61,376.78 -715.75,773.37 -1128.5,1136.97 -821.65,739.79 -1829.54,1263.36 -2854.35,1607.62 -1883.11,747.88 -3492.85,-113.89 -4283.44,-1918.7 -224.03,-512.22 -367.54,-1038.28 -413.42,-1599.16 -10.2,-123.13 81.47,-231.05 204.59,-240.96 109.37,-9.14 204.98,62.14 234.23,162.66z"/>
   <path class="fil4" d="M74910.31 53882.9c0,0 1638.99,-2206.89 3103.67,-3180.24 1465.08,-973.35 2664.18,-448.73 2136.77,466.71 -527.02,915.83 -2010.85,1804.82 -5240.44,2713.53z"/>
   <path class="fil0" d="M71062.13 47711.43c51.56,227.2 -808.19,615.23 -1920.15,867.54 -1111.96,251.83 -2055.29,271.93 -2106.75,44.73 -51.18,-226.82 808.57,-615.23 1920.53,-867.16 1111.86,-252.21 2054.91,-272.31 2106.37,-45.11z"/>
   <path class="fil4" d="M75589.32 53747.84c2.89,48.68 52.9,2136.1 -1020.87,3851.55 -583.87,933.15 -1501.81,1755.86 -2942.55,2079.64 -1387.45,311.84 -2534.32,-2.12 -3445.92,-554.83 -1774.13,-1078.48 -2657.15,-3062.5 -2675.81,-3109.06 68.39,20.49 1687.36,509.71 3380.7,-678.04 1650.91,-1158.23 957.09,-3719 889.27,-3953.61 95.62,263.18 1303.86,3533.07 3244.88,3226.51 1968.15,-309.35 2540.38,-834.36 2570.3,-862.16z"/>
   <path class="fil1" d="M74568.45 57599.39c-583.87,933.15 -1501.81,1755.86 -2942.55,2079.64 -1387.45,311.84 -2534.32,-2.12 -3445.92,-554.83 -17.6,-1102.15 319.93,-2860.69 2527.3,-3357.04 2147.64,-482.68 3312.22,851.19 3861.17,1832.23z"/>
   <path class="fil4" d="M66153.93 56483.2c685.45,1164.19 2463.82,3503.15 5392.61,2844.83 2976.42,-668.81 3553.84,-3624.83 3662.15,-4941.67 -425.06,191.89 -1099.54,415.92 -2133.59,579.25 -1206.51,189.79 -2134.27,-735.56 -2753.73,-1680.63 -69.16,834.35 -372.26,1744.12 -1229.79,2345.98 -1133.51,795.11 -2235.27,898.51 -2937.65,852.24zm4397.72 3678.12c-3585.59,0 -5359.33,-3960.34 -5378.76,-4004.39 -56.85,-129.47 -31.75,-280.49 63.1,-385.24 95.32,-104.76 243.07,-143.9 377.54,-100.23 59.55,18.75 1513.75,459.69 3065.58,-628.99 1498.94,-1051.94 753.17,-3544.61 745.48,-3569.71 -57.52,-187.29 45.5,-386.3 232.11,-447.29 186.6,-61.46 386.97,39.15 451.22,224.32 315.31,911.59 1445.65,3229.68 2855.02,3005.65 1831.94,-289.24 2375.61,-766.25 2380.9,-771.16 103.7,-93.88 255.39,-122.06 384.86,-67.04 129.09,54.73 217.29,176.8 221.52,316.85 1.83,53.29 112.55,5315.66 -4245.64,6295.26 -403.23,90.71 -787.79,131.97 -1152.93,131.97z"/>
   <path class="fil4" d="M52059.77 20360.34c-60.32,0 -121.3,5.77 -182,16.35 -286.07,49.06 -532.99,209.7 -694.97,451.13 -1999.89,2981.9 -6344.32,11152.29 -3505.94,22600.94 25.11,100.52 12.41,206.71 -34.92,299.15 -50.4,98.79 -1227.96,2476.13 334.07,4869.72 119.95,183.82 81.57,428.24 -88.49,566.56 -13.08,10.2 -1302.51,1057.61 -2220.07,1923.71 -310.02,292.8 -432.86,729.89 -319.93,1140.14 898.13,3270.27 5461,13836.67 26466.72,12509.15 641.4,-40.6 1268.65,-182.77 1864.45,-422.28 19526.22,-7855.66 19089.52,-19357.21 18490.54,-22695.2 -75.22,-419.1 -374.37,-760.29 -780.39,-891.11 -1201.9,-386.68 -2815.87,-775.29 -2832.13,-779.14 -213.06,-50.98 -353.11,-254.9 -324.16,-472.29 377.84,-2833.76 -1709.2,-4470.92 -1798.46,-4539.21 -81.48,-63.49 -139,-153.91 -159.78,-253.95 -2372.81,-11554.36 -9815.05,-17054.51 -12904.58,-18883.08 -250.19,-148.14 -542.32,-186.61 -821.65,-107.74 -275.49,76.95 -501.35,257.79 -635.05,508.85 -1399.86,2625.03 -1474.6,6717.92 -1475.27,6759.28 -1.44,116.39 -50.12,227.01 -134.76,305.89 -84.75,79.83 -197.96,121.19 -313.97,115.42 -3200.82,-156.79 -6424.83,503.08 -6456.86,509.81 -16.93,3.85 -3216.31,801.27 -6031.12,2319.15 -101.96,55.79 -222.2,66.37 -332.72,31.74 -110.72,-35.59 -202.48,-113.51 -253.94,-217.39 -17.99,-37.52 -1853.49,-3701.4 -4244.3,-5463.6 -179.49,-132.74 -391.2,-202 -610.32,-202zm16228.91 45347.69c-18609.04,0 -22879.41,-10022.72 -23766.66,-13253.17 -196.91,-716.43 16.93,-1478.83 558.09,-1989.31 681.89,-644.19 1538.47,-1364.56 1978.73,-1728.92 -1341.95,-2368.21 -514.33,-4644.64 -249.04,-5249 -2847.61,-11703.75 1607.53,-20073.25 3662.15,-23136.91 288.96,-430.93 747.88,-729.12 1259.04,-817.62 514.33,-89.45 1027.98,30.78 1447.08,339.55 2107.24,1553.48 3744.11,4354.53 4300.37,5384.73 2803.95,-1439.01 5735.44,-2168.13 5864.62,-2199.87 144.29,-30.78 3104.73,-634.85 6254.77,-546.36 58.48,-1168.71 328.01,-4401.66 1559.91,-6712.15 244.9,-458.83 656.5,-788.76 1159.19,-930.16 499.23,-140.43 1042.12,-69.25 1488.74,195.27 3174.37,1879.55 10801.76,7510.53 13276.45,19298.63 500.28,430.93 2228.15,2128.69 2037.69,4844.14 554.54,138.51 1637.93,419.38 2531.15,706.99 708.34,227.97 1229.79,823.39 1360.61,1554.44 628.02,3498.91 1112.34,15544.13 -19013.62,23640.75l-159.48 -397.27 159.48 397.27c-680.45,273.66 -1396.97,436.03 -2129.36,482.49 -1247.78,78.68 -2442.27,116.48 -3579.91,116.48z"/>
   <path class="fil1" d="M63574.5 50182.65c-284.34,63.87 -580.7,-0.77 -813.58,-177.08 -2357.24,-1783.66 -4932.82,-2377.73 -7655.2,-1765.67 -1622.15,364.75 -2807.79,1060.11 -3242.09,1341.95 -98.78,64.25 -207.38,110.04 -322.04,135.82 -349.94,78.68 -715.75,-39.82 -954.69,-309.06 -238.07,-268.47 -311.46,-645.92 -191.13,-984.89 324.55,-914.77 1673.52,-3964.57 5407.72,-4803.83 294.53,-66.28 601.09,-117.84 911.59,-153.04 3901.38,-442.76 6466.38,2501.14 7566.32,5403.48 101.57,267.79 82.24,565.12 -52.52,815.98 -135.82,252.6 -374.66,433.53 -654.38,496.34z"/>
   <path class="fil4" d="M51375.08 48829.74c1114.75,-723.93 6400.4,-3721.12 11927.01,460.75 73,55.02 173.23,-16.93 140.82,-102.35 -437.19,-1152.84 -2323.38,-5318.45 -6626.64,-4830.19 -3901.37,442.77 -5255.64,3465.35 -5575.28,4365.59 -28.95,81.48 61.76,153.14 134.09,106.2z"/>
   <path class="fil1" d="M74860.1 47645.45c284.44,-63.78 524.62,-249.04 659.77,-508.27 1366.96,-2620.9 3440.63,-4259.88 6163,-4871.94 1622.05,-364.75 2991.22,-243.36 3504.5,-174.58 116.77,15.87 234.22,10.96 348.88,-14.82 350.32,-79.07 630.04,-342.53 730.66,-687.95 100.52,-344.65 5.29,-717 -248.75,-971.9 -684.78,-687.76 -3209.19,-2867.43 -6943.01,-2027.69 -294.91,66.37 -594.07,151.02 -889.75,252.02 -3715.45,1269.71 -4774.11,5027.95 -4525.75,8121.81 22.6,285.4 167.56,546.07 396.88,715.08 230.76,170.06 523.85,231.43 803.57,168.24z"/>
   <path class="fil4" d="M85306.93 41201.96c-1317.61,-177.38 -7377.3,-624.37 -10582.55,5520.64 -42.33,81.18 -163.33,58.96 -170.84,-32.13 -98.4,-1229.02 -176.02,-5801.23 3921.87,-7201.76 3715.44,-1269.71 6233.22,883.03 6907.41,1559.82 60.6,61.37 9.81,164.78 -75.89,153.43z"/>
   <path class="fil0" d="M96328.4 32289.84c-632.16,-1034.04 -943.63,-2274.9 -810.31,-3573.46 323.49,-3151.19 3140.42,-5443.4 6291.61,-5119.24 3151.19,323.2 5443.4,3139.64 5120.2,6291.8 -323.2,3151.18 -3140.61,5443.4 -6291.8,5119.24 -876.29,-89.46 -1686.21,-373.22 -2391.96,-802.23l-2654.27 595.42 736.53 -2511.53z"/>
   <path class="fil0" d="M106321.02 27998.8c-821.47,-1778.56 -2533.65,-3089.63 -4623.87,-3305.09 -199.11,-20.2 -396.3,-29.82 -592.53,-29.82 -1865.12,0 -3559.8,907.07 -4614.24,2337.42 330.51,-681.03 808.86,-1287.03 1413.23,-1778.56 947.28,-771.44 2106.37,-1181.21 3310.67,-1181.21 181.8,0 364.56,9.62 547.32,27.89 2249.89,230.86 4026.52,1856.47 4559.42,3929.37z"/>
   <path class="fil4" d="M98246.14 33730.77c86.28,0 171.89,23.09 246.92,69.26 670.45,407.84 1408.22,655.05 2193.14,735.85 2887.62,295.31 5475.14,-1810.3 5770.44,-4696 296.27,-2885.71 -1809.33,-5474.18 -4695.04,-5770.45 -1398.6,-143.32 -2768.35,266.45 -3857.99,1153.32 -1090.13,886.87 -1769.23,2145.04 -1912.74,3542.68 -118.22,1154.29 138.61,2287.41 742.87,3276.24 69.84,114.47 88.21,252.98 50.5,381.88l-509.42 1737.19 1867.24 -418.43c34.53,-7.69 69.16,-11.54 104.08,-11.54zm2982.57 1783.37c-211.62,0 -424.2,-10.59 -638.7,-32.71 -861.87,-88.49 -1675.64,-347.25 -2422.94,-770.48l-2471.12 554.05c-164.39,36.56 -335.9,-16.35 -450.85,-138.51 -115.42,-123.12 -157.07,-298.19 -109.46,-458.83l678.81 -2314.33c-636.1,-1123.5 -901.68,-2393.21 -769.04,-3685.05 169.3,-1650.62 971.14,-3135.8 2258.16,-4183.31 1286.64,-1047.51 2905.52,-1531.34 4555.18,-1361.09 3407.06,350.13 5893.57,3406.1 5544.4,6813.15 -328,3192.55 -3032.87,5577.11 -6174.44,5577.11z"/>
   <path class="fil17" d="M101227.75 34563.78c-178.92,0 -359.75,-9.62 -541.55,-27.9 -784.92,-80.8 -1522.69,-328.01 -2193.14,-735.85 -75.03,-46.17 -160.64,-69.26 -246.92,-69.26 -34.92,0 -69.55,3.85 -104.08,11.54l-1867.24 418.43 464.21 -1582.33c1103.5,784.91 2440.83,1230.27 3837.51,1230.27 530.01,0 1066.75,-64.44 1604.45,-198.15 1852.62,-460.75 3326.26,-1659.28 4187.16,-3205.05 -515.58,2415.33 -2667.35,4158.3 -5140.4,4158.3z"/>
   <path class="fil18" d="M101230.63 35038.96c-196.23,0 -393.42,-9.62 -592.53,-30.78 -876.29,-89.46 -1686.21,-373.22 -2391.96,-802.23l-2654.27 595.42 736.53 -2511.53c-11.26,-18.27 -21.45,-36.55 -32.42,-54.83 142.84,121.2 290.69,235.67 443.05,343.4l-464.21 1582.33 1867.24 -418.43c34.53,-7.69 69.16,-11.54 104.08,-11.54 86.28,0 171.89,23.09 246.92,69.26 670.45,407.84 1408.22,655.05 2193.14,735.85 181.8,18.28 362.63,27.9 541.55,27.9 2473.05,0 4624.82,-1742.97 5140.4,-4158.3 247.21,-443.44 443.43,-914.77 583.87,-1406.3 15.39,292.41 8.66,589.64 -22.12,889.76 -303,2951.11 -2794.33,5150.02 -5699.27,5150.02z"/>
   <path class="fil19" d="M99389.55 27691.95l0 0c496.34,-496.34 1301.46,-407.84 1797.8,88.5l77.91 77.91 76.95 -77.91c496.34,-496.34 1300.49,-584.84 1796.83,-88.5l0 0c497.31,496.34 497.31,1301.46 0,1797.8l-76.95 76.95 -1560.2 1561.16c-130.82,130.82 -343.4,130.82 -474.22,0l-1560.2 -1561.16 -77.92 -76.95c-496.34,-496.34 -496.34,-1301.46 0,-1797.8z"/>
  </g>
 </g>
</svg>
